<svg xmlns="http://www.w3.org/2000/svg" xmlns:xlink="http://www.w3.org/1999/xlink" viewBox="0 0 229.95 212.18">
  <defs>
    <linearGradient id="gradient" x1="202.27" y1="-29.06" x2="41.96" y2="230.45" gradientUnits="userSpaceOnUse">
      <stop offset="0" stop-color="#b333ff" />
      <stop offset="0.24" stop-color="#975ff7" />
      <stop offset="0.77" stop-color="#52cee1" />
      <stop offset="1" stop-color="#33ffd8" />
    </linearGradient>
  </defs>
  <g id="icon" fill="url(#gradient)">
    <polygon points="60.99 189.38 70.06 194.84 69.86 205.43 60.59 210.55 51.52 205.08 51.72 194.5 60.99 189.38" />
    <polygon points="51.52 205.08 51.72 194.5 60.99 189.38 70.06 194.84 69.86 205.43 60.59 210.55 51.52 205.08" />
    <polygon points="62.56 187.38 62.75 177.38 71.5 172.55 80.05 177.71 79.86 187.71 71.12 192.54 62.56 187.38" />
    <polygon points="73.59 169.67 73.77 160.27 82 155.73 90.05 160.58 89.87 169.98 81.64 174.52 73.59 169.67" />
    <polygon points="84.63 151.96 84.79 143.16 92.5 138.9 100.04 143.45 99.87 152.25 92.17 156.51 84.63 151.96" />
    <polygon points="95.66 134.25 95.82 126.05 103 122.08 110.03 126.32 109.88 134.53 102.69 138.49 95.66 134.25" />
    <polygon points="84.2 115.69 84.35 107.93 91.14 104.18 97.79 108.19 97.64 115.94 90.85 119.7 84.2 115.69" />
    <polygon points="73.46 133.37 73.62 124.91 81.03 120.81 88.28 125.19 88.12 133.65 80.71 137.75 73.46 133.37" />
    <polygon points="62.71 151.06 62.88 141.88 70.92 137.45 78.77 142.19 78.6 151.36 70.57 155.79 62.71 151.06" />
    <polygon points="51.96 168.74 52.15 158.86 60.8 154.08 69.27 159.19 69.08 169.07 60.43 173.84 51.96 168.74" />
    <polygon points="41.22 186.43 41.42 175.84 50.69 170.72 59.76 176.19 59.56 186.78 50.29 191.9 41.22 186.43" />
    <polygon points="97.39 62.08 97.5 56.21 102.65 53.37 107.68 56.4 107.57 62.27 102.42 65.12 97.39 62.08" />
    <polygon points="86.31 79.7 86.44 73.04 92.27 69.82 97.97 73.26 97.85 79.92 92.02 83.14 86.31 79.7" />
    <polygon points="75.23 97.31 75.37 89.87 81.89 86.27 88.27 90.11 88.13 97.56 81.61 101.16 75.23 97.31" />
    <polygon points="64.15 114.93 64.31 106.69 71.52 102.72 78.56 106.97 78.41 115.2 71.2 119.18 64.15 114.93" />
    <polygon points="53.07 132.54 53.24 123.52 61.14 119.16 68.86 123.82 68.69 132.84 60.8 137.2 53.07 132.54" />
    <polygon points="41.99 150.16 42.18 140.35 50.76 135.61 59.16 140.68 58.97 150.48 50.39 155.22 41.99 150.16" />
    <polygon points="30.91 167.77 31.11 157.18 40.38 152.06 49.45 157.53 49.25 168.12 39.98 173.24 30.91 167.77" />
    <polygon points="76.05 61.44 76.17 55.27 81.57 52.29 86.86 55.47 86.74 61.64 81.34 64.62 76.05 61.44" />
    <polygon points="64.96 78.97 65.1 71.92 71.27 68.51 77.31 72.15 77.18 79.2 71 82.61 64.96 78.97" />
    <polygon points="53.88 96.51 54.03 88.57 60.98 84.73 67.77 88.83 67.62 96.77 60.67 100.61 53.88 96.51" />
    <polygon points="42.79 114.04 42.95 105.22 50.68 100.96 58.23 105.51 58.06 114.33 50.34 118.6 42.79 114.04" />
    <polygon points="31.7 131.58 31.88 121.87 40.38 117.18 48.69 122.19 48.51 131.9 40.01 136.59 31.7 131.58" />
    <polygon points="20.61 149.11 20.81 138.52 30.08 133.41 39.15 138.87 38.95 149.46 29.68 154.58 20.61 149.11" />
    <polygon points="64.08 43.26 64.19 37.72 69.03 35.05 73.78 37.91 73.67 43.44 68.82 46.12 64.08 43.26" />
    <polygon points="53.33 60.7 53.45 54.15 59.18 50.99 64.79 54.37 64.67 60.91 58.93 64.08 53.33 60.7" />
    <polygon points="42.57 78.14 42.71 70.58 49.33 66.93 55.8 70.83 55.66 78.39 49.04 82.04 42.57 78.14" />
    <polygon points="31.82 95.58 31.98 87.01 39.48 82.87 46.82 87.29 46.65 95.86 39.15 100 31.82 95.58" />
    <polygon points="21.06 113.02 21.24 103.44 29.63 98.81 37.83 103.75 37.65 113.33 29.26 117.96 21.06 113.02" />
    <polygon points="10.3 130.45 10.51 119.87 19.77 114.75 28.84 120.22 28.64 130.8 19.37 135.92 10.3 130.45" />
    <polygon points="55.81 25.48 55.9 20.79 60.01 18.52 64.03 20.94 63.95 25.64 59.83 27.91 55.81 25.48" />
    <polygon points="44.65 42.74 44.76 36.87 49.9 34.03 54.94 37.06 54.82 42.94 49.68 45.78 44.65 42.74" />
    <polygon points="33.49 60.01 33.62 52.95 39.8 49.55 45.84 53.19 45.7 60.24 39.53 63.65 33.49 60.01" />
    <polygon points="22.32 77.27 22.48 69.04 29.69 65.06 36.74 69.31 36.58 77.54 29.37 81.52 22.32 77.27" />
    <polygon points="11.16 94.53 11.34 85.13 19.58 80.58 27.64 85.43 27.46 94.84 19.22 99.39 11.16 94.53" />
    <polygon points="0 111.8 0.2 101.21 9.47 96.09 18.54 101.56 18.34 112.14 9.07 117.27 0 111.8" />
    <polygon points="124.1 139.53 117.45 135.52 117.6 127.77 124.39 124.01 131.04 128.02 130.89 135.78 124.1 139.53" />
    <polygon points="113.47 157.29 106.22 152.92 106.38 144.45 113.8 140.36 121.05 144.73 120.89 153.2 113.47 157.29" />
    <polygon points="102.85 175.05 94.99 170.31 95.17 161.14 103.2 156.7 111.06 161.44 110.88 170.61 102.85 175.05" />
    <polygon points="92.23 192.81 83.76 187.7 83.95 177.82 92.6 173.05 101.06 178.15 100.88 188.03 92.23 192.81" />
    <polygon points="81.6 210.56 90.87 205.45 91.07 194.86 82 189.39 72.73 194.51 72.53 205.1 81.6 210.56" />
    <polygon points="165.35 102.85 160.32 99.81 160.43 93.94 165.58 91.1 170.61 94.13 170.5 100.01 165.35 102.85" />
    <polygon points="154.95 120.87 149.24 117.43 149.37 110.77 155.2 107.55 160.9 110.99 160.78 117.65 154.95 120.87" />
    <polygon points="144.54 138.89 138.16 135.04 138.3 127.6 144.82 124 151.2 127.84 151.06 135.29 144.54 138.89" />
    <polygon points="134.13 156.91 127.08 152.66 127.24 144.43 134.44 140.45 141.5 144.7 141.34 152.93 134.13 156.91" />
    <polygon points="123.72 174.93 116 170.27 116.17 161.26 124.07 156.9 131.79 161.55 131.62 170.57 123.72 174.93" />
    <polygon
      points="113.32 192.95 104.92 187.89 105.11 178.09 113.69 173.35 122.09 178.41 121.9 188.21 113.32 192.95" />
    <polygon points="102.91 210.97 112.18 205.85 112.38 195.26 103.31 189.79 94.04 194.91 93.84 205.5 102.91 210.97" />
    <polygon points="175.88 121.42 170.6 118.23 170.72 112.06 176.12 109.08 181.4 112.27 181.28 118.44 175.88 121.42" />
    <polygon points="165.55 139.41 159.51 135.77 159.64 128.72 165.82 125.31 171.86 128.95 171.72 136 165.55 139.41" />
    <polygon points="155.22 157.4 148.42 153.3 148.57 145.37 155.52 141.53 162.32 145.63 162.17 153.56 155.22 157.4" />
    <polygon
      points="144.89 175.39 137.33 170.84 137.5 162.02 145.22 157.75 152.78 162.31 152.61 171.13 144.89 175.39" />
    <polygon
      points="134.55 193.38 126.24 188.37 126.43 178.67 134.92 173.98 143.23 178.99 143.05 188.69 134.55 193.38" />
    <polygon
      points="124.22 211.38 133.49 206.26 133.69 195.67 124.62 190.2 115.35 195.32 115.15 205.91 124.22 211.38" />
    <polygon points="197.54 123.52 192.8 120.66 192.91 115.13 197.76 112.45 202.5 115.31 202.39 120.85 197.54 123.52" />
    <polygon points="187.14 141.18 181.53 137.79 181.66 131.25 187.39 128.08 193 131.46 192.88 138.01 187.14 141.18" />
    <polygon
      points="176.74 158.83 170.27 154.92 170.41 147.37 177.03 143.71 183.5 147.61 183.36 155.17 176.74 158.83" />
    <polygon points="166.34 176.48 159 172.05 159.16 163.49 166.66 159.34 174 163.77 173.84 172.34 166.34 176.48" />
    <polygon points="155.93 194.13 147.73 189.18 147.91 179.6 156.3 174.97 164.5 179.92 164.32 189.5 155.93 194.13" />
    <polygon points="145.53 211.78 154.8 206.66 155 196.07 145.93 190.6 136.66 195.72 136.46 206.31 145.53 211.78" />
    <polygon
      points="217.13 122.54 213.11 120.11 213.2 115.42 217.31 113.15 221.33 115.57 221.24 120.27 217.13 122.54" />
    <polygon
      points="207.07 140.47 202.04 137.43 202.15 131.56 207.29 128.72 212.33 131.75 212.22 137.63 207.07 140.47" />
    <polygon points="197.01 158.4 190.97 154.75 191.11 147.7 197.28 144.29 203.32 147.94 203.19 154.99 197.01 158.4" />
    <polygon
      points="186.96 176.33 179.91 172.08 180.06 163.84 187.27 159.87 194.32 164.12 194.16 172.35 186.96 176.33" />
    <polygon points="176.9 194.26 168.84 189.4 169.02 179.99 177.26 175.44 185.32 180.3 185.14 189.71 176.9 194.26" />
    <polygon
      points="166.84 212.19 176.11 207.06 176.31 196.48 167.24 191.01 157.97 196.13 157.77 206.72 166.84 212.19" />
    <polygon
      points="73.07 0 90.41 32.14 140.79 33.26 112.69 80.97 104.39 94.72 113.26 110.78 131.6 111.13 141.07 95.42 141.06 95.41 168.59 49.07 193.58 94.35 229.95 94.59 178.82 2.01 73.07 0" />
  </g>
</svg>