<svg width="512" height="512" viewBox="0 0 512 512" fill="none" xmlns="http://www.w3.org/2000/svg">
  <rect width="512" height="512" rx="64" fill="#000033" />
  <path
    d="M299.336 341.72C301.256 341.72 302.936 342.5 304.376 344.06L318.236 359C307.676 371.24 294.836 380.78 279.716 387.62C264.716 394.46 246.536 397.88 225.176 397.88C206.696 397.88 189.896 394.7 174.776 388.34C159.656 381.86 146.756 372.86 136.076 361.34C125.396 349.7 117.116 335.78 111.236 319.58C105.356 303.38 102.416 285.56 102.416 266.12C102.416 246.68 105.476 228.86 111.596 212.66C117.716 196.46 126.296 182.54 137.336 170.9C148.496 159.26 161.816 150.26 177.296 143.9C192.776 137.42 209.876 134.18 228.596 134.18C246.956 134.18 263.156 137.12 277.196 143C291.236 148.88 303.596 156.86 314.276 166.94L302.756 182.96C302.036 184.16 301.076 185.18 299.876 186.02C298.796 186.74 297.296 187.1 295.376 187.1C293.216 187.1 290.576 185.96 287.456 183.68C284.336 181.28 280.256 178.64 275.216 175.76C270.176 172.88 263.876 170.3 256.316 168.02C248.756 165.62 239.456 164.42 228.416 164.42C215.096 164.42 202.916 166.76 191.876 171.44C180.836 176 171.296 182.66 163.256 191.42C155.336 200.18 149.156 210.86 144.716 223.46C140.276 236.06 138.056 250.28 138.056 266.12C138.056 282.2 140.336 296.54 144.896 309.14C149.576 321.74 155.876 332.42 163.796 341.18C171.836 349.82 181.256 356.42 192.056 360.98C202.976 365.54 214.736 367.82 227.336 367.82C235.016 367.82 241.916 367.4 248.036 366.56C254.276 365.6 259.976 364.16 265.136 362.24C270.416 360.32 275.276 357.92 279.716 355.04C284.276 352.04 288.776 348.5 293.216 344.42C295.256 342.62 297.296 341.72 299.336 341.72Z"
    fill="#7DBDE8" />
  <path d="M393.645 395H358.725V137.06H393.645V395Z" fill="#FFFF66" />
</svg>